<svg class="ks-map" viewBox="0 0 1000 620" role="img" aria-labelledby="ks-map-title ks-map-desc" xmlns="http://www.w3.org/2000/svg">
  <title id="ks-map-title">Map of Kansas counties</title>
  <desc id="ks-map-desc">Interactive map of all 105 Kansas counties. Select a county to view its law enforcement agencies.</desc>
  <g>
    <path d="M 869.15,340.16 L 927.22,340.30 L 927.22,376.83 L 925.80,391.55 L 868.68,391.55 L 869.15,340.16 Z" data-county="Allen" data-fips="20001" data-slug="allen" tabindex="0" role="button" aria-label="Allen County"><title>Allen County</title></path>
    <path d="M 870.57,280.97 L 929.10,281.11 L 927.22,340.30 L 869.15,340.16 L 869.62,303.06 L 871.04,303.06 L 870.57,280.97 Z" data-county="Anderson" data-fips="20003" data-slug="anderson" tabindex="0" role="button" aria-label="Anderson County"><title>Anderson County</title></path>
    <path d="M 863.49,68.76 L 922.50,68.90 L 924.86,74.24 L 930.52,75.11 L 931.46,78.57 L 923.44,82.04 L 923.91,88.97 L 930.99,94.89 L 931.46,99.07 L 939.02,103.55 L 941.85,108.17 L 862.54,108.17 L 863.49,68.76 Z" data-county="Atchison" data-fips="20005" data-slug="atchison" tabindex="0" role="button" aria-label="Atchison County"><title>Atchison County</title></path>
    <path d="M 409.84,435.58 L 482.06,435.44 L 482.06,450.02 L 497.17,450.02 L 497.17,514.98 L 411.25,514.69 L 411.25,450.02 L 409.84,450.02 L 409.84,435.58 Z" data-county="Barber" data-fips="20007" data-slug="barber" tabindex="0" role="button" aria-label="Barber County"><title>Barber County</title></path>
    <path d="M 407.00,229.43 L 479.23,229.43 L 479.70,302.77 L 407.48,302.62 L 407.00,229.43 Z" data-county="Barton" data-fips="20009" data-slug="barton" tabindex="0" role="button" aria-label="Barton County"><title>Barton County</title></path>
    <path d="M 925.80,401.22 L 927.22,376.83 L 927.22,340.30 L 988.58,340.30 L 987.64,401.51 L 925.80,401.22 Z" data-county="Bourbon" data-fips="20011" data-slug="bourbon" tabindex="0" role="button" aria-label="Bourbon County"><title>Bourbon County</title></path>
    <path d="M 833.75,10.43 L 892.76,10.43 L 892.76,68.76 L 833.75,68.76 L 833.75,10.43 Z" data-county="Brown" data-fips="20013" data-slug="brown" tabindex="0" role="button" aria-label="Brown County"><title>Brown County</title></path>
    <path d="M 654.36,434.72 L 654.36,331.78 L 737.45,332.07 L 736.97,434.57 L 654.36,434.72 Z" data-county="Butler" data-fips="20015" data-slug="butler" tabindex="0" role="button" aria-label="Butler County"><title>Butler County</title></path>
    <path d="M 698.27,258.74 L 759.63,258.88 L 759.16,332.22 L 695.43,332.22 L 695.91,288.04 L 698.27,288.04 L 698.27,258.74 Z" data-county="Chase" data-fips="20017" data-slug="chase" tabindex="0" role="button" aria-label="Chase County"><title>Chase County</title></path>
    <path d="M 736.97,463.73 L 810.62,464.31 L 810.62,514.84 L 736.97,514.84 L 736.97,463.73 Z" data-county="Chautauqua" data-fips="20019" data-slug="chautauqua" tabindex="0" role="button" aria-label="Chautauqua County"><title>Chautauqua County</title></path>
    <path d="M 927.69,457.52 L 988.11,457.81 L 987.64,514.84 L 928.16,514.69 L 927.69,457.52 Z" data-county="Cherokee" data-fips="20021" data-slug="cherokee" tabindex="0" role="button" aria-label="Cherokee County"><title>Cherokee County</title></path>
    <path d="M 10.00,10.00 L 94.50,10.14 L 94.03,83.05 L 10.47,83.05 L 10.00,10.00 Z" data-county="Cheyenne" data-fips="20023" data-slug="cheyenne" tabindex="0" role="button" aria-label="Cheyenne County"><title>Cheyenne County</title></path>
    <path d="M 265.86,434.86 L 338.55,436.01 L 338.55,450.60 L 339.97,450.60 L 340.44,514.69 L 268.22,514.26 L 267.75,449.58 L 265.86,449.58 L 265.86,434.86 Z" data-county="Clark" data-fips="20025" data-slug="clark" tabindex="0" role="button" aria-label="Clark County"><title>Clark County</title></path>
    <path d="M 625.57,156.38 L 626.04,83.19 L 679.86,83.34 L 679.38,156.24 L 625.57,156.38 Z" data-county="Clay" data-fips="20027" data-slug="clay" tabindex="0" role="button" aria-label="Clay County"><title>Clay County</title></path>
    <path d="M 551.93,68.61 L 626.04,68.61 L 626.04,127.08 L 552.40,127.08 L 551.93,68.61 Z" data-county="Cloud" data-fips="20029" data-slug="cloud" tabindex="0" role="button" aria-label="Cloud County"><title>Cloud County</title></path>
    <path d="M 811.56,339.87 L 812.50,273.61 L 870.57,273.61 L 871.04,303.06 L 869.62,303.06 L 869.15,340.16 L 811.56,339.87 Z" data-county="Coffey" data-fips="20031" data-slug="coffey" tabindex="0" role="button" aria-label="Coffey County"><title>Coffey County</title></path>
    <path d="M 339.97,450.60 L 411.25,450.02 L 411.25,514.69 L 340.44,514.69 L 339.97,450.60 Z" data-county="Comanche" data-fips="20033" data-slug="comanche" tabindex="0" role="button" aria-label="Comanche County"><title>Comanche County</title></path>
    <path d="M 654.36,434.72 L 736.97,434.57 L 736.97,514.84 L 655.31,514.84 L 654.36,434.72 Z" data-county="Cowley" data-fips="20035" data-slug="cowley" tabindex="0" role="button" aria-label="Cowley County"><title>Cowley County</title></path>
    <path d="M 925.80,401.22 L 987.64,401.51 L 988.11,457.81 L 927.69,457.52 L 925.80,450.16 L 925.80,401.22 Z" data-county="Crawford" data-fips="20037" data-slug="crawford" tabindex="0" role="button" aria-label="Crawford County"><title>Crawford County</title></path>
    <path d="M 182.77,10.14 L 256.42,10.29 L 256.42,83.34 L 182.77,83.05 L 182.77,10.14 Z" data-county="Decatur" data-fips="20039" data-slug="decatur" tabindex="0" role="button" aria-label="Decatur County"><title>Decatur County</title></path>
    <path d="M 625.57,244.16 L 625.57,156.38 L 679.38,156.24 L 679.38,184.39 L 684.10,182.08 L 684.10,200.27 L 688.82,200.41 L 688.82,210.09 L 684.10,210.09 L 683.63,244.16 L 625.57,244.16 Z" data-county="Dickinson" data-fips="20041" data-slug="dickinson" tabindex="0" role="button" aria-label="Dickinson County"><title>Dickinson County</title></path>
    <path d="M 892.76,10.43 L 897.00,10.43 L 904.56,19.09 L 910.69,20.68 L 911.17,26.89 L 917.30,26.02 L 919.66,31.22 L 931.94,33.24 L 938.55,27.61 L 947.04,29.20 L 945.15,33.24 L 953.65,40.60 L 953.18,44.50 L 947.51,45.80 L 948.93,51.00 L 954.60,48.69 L 954.12,55.76 L 949.40,56.63 L 943.27,53.16 L 940.91,63.99 L 933.82,66.73 L 930.52,75.11 L 924.86,74.24 L 922.50,68.90 L 892.76,68.76 L 892.76,10.43 Z" data-county="Doniphan" data-fips="20043" data-slug="doniphan" tabindex="0" role="button" aria-label="Doniphan County"><title>Doniphan County</title></path>
    <path d="M 871.98,168.94 L 880.01,166.78 L 892.76,173.27 L 898.42,171.40 L 913.05,171.11 L 913.05,184.53 L 915.89,181.65 L 927.69,184.53 L 930.05,181.50 L 930.05,222.50 L 871.51,222.36 L 871.98,168.94 Z" data-county="Douglas" data-fips="20045" data-slug="douglas" tabindex="0" role="button" aria-label="Douglas County"><title>Douglas County</title></path>
    <path d="M 338.08,391.12 L 336.67,331.93 L 365.46,331.93 L 365.46,346.51 L 408.42,346.51 L 408.42,375.96 L 409.84,375.96 L 409.84,391.41 L 338.08,391.12 Z" data-county="Edwards" data-fips="20047" data-slug="edwards" tabindex="0" role="button" aria-label="Edwards County"><title>Edwards County</title></path>
    <path d="M 736.97,412.63 L 811.09,413.21 L 810.62,464.31 L 736.97,463.73 L 736.97,412.63 Z" data-county="Elk" data-fips="20049" data-slug="elk" tabindex="0" role="button" aria-label="Elk County"><title>Elk County</title></path>
    <path d="M 333.83,156.24 L 406.53,156.10 L 406.06,229.43 L 332.89,229.58 L 333.83,156.24 Z" data-county="Ellis" data-fips="20051" data-slug="ellis" tabindex="0" role="button" aria-label="Ellis County"><title>Ellis County</title></path>
    <path d="M 479.23,200.27 L 552.40,200.13 L 552.87,258.74 L 479.70,258.88 L 479.23,200.27 Z" data-county="Ellsworth" data-fips="20053" data-slug="ellsworth" tabindex="0" role="button" aria-label="Ellsworth County"><title>Ellsworth County</title></path>
    <path d="M 135.10,302.19 L 250.28,302.48 L 250.28,346.37 L 192.69,346.22 L 192.69,375.38 L 194.10,375.38 L 194.10,390.83 L 136.51,390.83 L 136.51,375.24 L 134.62,375.38 L 135.10,302.19 Z" data-county="Finney" data-fips="20055" data-slug="finney" tabindex="0" role="button" aria-label="Finney County"><title>Finney County</title></path>
    <path d="M 250.28,361.09 L 336.67,361.23 L 338.55,436.01 L 251.70,434.72 L 251.70,375.67 L 250.28,375.67 L 250.28,361.09 Z" data-county="Ford" data-fips="20057" data-slug="ford" tabindex="0" role="button" aria-label="Ford County"><title>Ford County</title></path>
    <path d="M 871.51,222.36 L 930.05,222.50 L 929.10,229.86 L 929.10,281.11 L 870.57,280.97 L 870.57,229.72 L 871.51,222.36 Z" data-county="Franklin" data-fips="20059" data-slug="franklin" tabindex="0" role="button" aria-label="Franklin County"><title>Franklin County</title></path>
    <path d="M 679.38,184.39 L 679.38,141.51 L 694.49,141.66 L 694.49,155.08 L 696.85,155.08 L 694.02,163.75 L 713.37,163.17 L 713.37,166.20 L 740.28,166.35 L 740.28,200.41 L 684.10,200.27 L 684.10,182.08 L 679.38,184.39 Z" data-county="Geary" data-fips="20061" data-slug="geary" tabindex="0" role="button" aria-label="Geary County"><title>Geary County</title></path>
    <path d="M 173.33,156.10 L 260.66,156.38 L 259.72,229.43 L 172.39,229.00 L 173.33,156.10 Z" data-county="Gove" data-fips="20063" data-slug="gove" tabindex="0" role="button" aria-label="Gove County"><title>Gove County</title></path>
    <path d="M 258.78,83.19 L 332.42,83.19 L 331.95,156.24 L 258.30,156.38 L 258.78,83.19 Z" data-county="Graham" data-fips="20065" data-slug="graham" tabindex="0" role="button" aria-label="Graham County"><title>Graham County</title></path>
    <path d="M 78.92,390.83 L 136.51,390.83 L 136.51,449.44 L 79.39,449.30 L 78.92,390.83 Z" data-county="Grant" data-fips="20067" data-slug="grant" tabindex="0" role="button" aria-label="Grant County"><title>Grant County</title></path>
    <path d="M 250.28,346.37 L 250.28,375.67 L 251.70,375.67 L 251.70,434.72 L 194.10,434.86 L 194.10,375.38 L 192.69,375.38 L 192.69,346.22 L 250.28,346.37 Z" data-county="Gray" data-fips="20069" data-slug="gray" tabindex="0" role="button" aria-label="Gray County"><title>Gray County</title></path>
    <path d="M 10.94,302.48 L 10.94,229.29 L 73.73,229.00 L 73.73,302.33 L 10.94,302.48 Z" data-county="Greeley" data-fips="20071" data-slug="greeley" tabindex="0" role="button" aria-label="Greeley County"><title>Greeley County</title></path>
    <path d="M 737.45,332.07 L 759.16,332.22 L 759.16,317.64 L 811.56,317.93 L 811.09,413.21 L 736.97,412.63 L 737.45,332.07 Z" data-county="Greenwood" data-fips="20073" data-slug="greenwood" tabindex="0" role="button" aria-label="Greenwood County"><title>Greenwood County</title></path>
    <path d="M 10.94,302.48 L 77.03,302.33 L 77.03,375.53 L 79.39,375.53 L 78.92,390.83 L 11.42,390.54 L 10.94,302.48 Z" data-county="Hamilton" data-fips="20075" data-slug="hamilton" tabindex="0" role="button" aria-label="Hamilton County"><title>Hamilton County</title></path>
    <path d="M 497.17,450.02 L 568.92,450.02 L 568.92,514.84 L 497.17,514.98 L 497.17,450.02 Z" data-county="Harper" data-fips="20077" data-slug="harper" tabindex="0" role="button" aria-label="Harper County"><title>Harper County</title></path>
    <path d="M 582.14,317.35 L 654.36,317.20 L 654.36,361.23 L 582.14,361.52 L 582.14,317.35 Z" data-county="Harvey" data-fips="20079" data-slug="harvey" tabindex="0" role="button" aria-label="Harvey County"><title>Harvey County</title></path>
    <path d="M 136.51,390.83 L 194.10,390.83 L 194.10,449.44 L 136.51,449.44 L 136.51,390.83 Z" data-county="Haskell" data-fips="20081" data-slug="haskell" tabindex="0" role="button" aria-label="Haskell County"><title>Haskell County</title></path>
    <path d="M 250.28,302.48 L 336.67,302.48 L 336.67,361.23 L 250.28,361.09 L 250.28,302.48 Z" data-county="Hodgeman" data-fips="20083" data-slug="hodgeman" tabindex="0" role="button" aria-label="Hodgeman County"><title>Hodgeman County</title></path>
    <path d="M 801.18,83.34 L 833.75,83.48 L 833.75,68.76 L 863.49,68.76 L 862.54,108.17 L 860.18,108.17 L 860.18,142.24 L 801.18,142.09 L 801.18,83.34 Z" data-county="Jackson" data-fips="20085" data-slug="jackson" tabindex="0" role="button" aria-label="Jackson County"><title>Jackson County</title></path>
    <path d="M 859.24,167.64 L 860.18,108.17 L 914.00,108.02 L 913.05,171.11 L 898.42,171.40 L 892.76,173.27 L 880.01,166.78 L 871.98,168.94 L 859.24,167.64 Z" data-county="Jefferson" data-fips="20087" data-slug="jefferson" tabindex="0" role="button" aria-label="Jefferson County"><title>Jefferson County</title></path>
    <path d="M 476.87,10.14 L 551.93,10.14 L 551.93,83.34 L 476.40,83.19 L 476.87,10.14 Z" data-county="Jewell" data-fips="20089" data-slug="jewell" tabindex="0" role="button" aria-label="Jewell County"><title>Jewell County</title></path>
    <path d="M 930.05,181.50 L 934.77,178.47 L 944.21,181.21 L 949.40,179.92 L 954.60,168.65 L 963.56,171.25 L 989.06,171.11 L 989.06,222.50 L 930.05,222.50 L 930.05,181.50 Z" data-county="Johnson" data-fips="20091" data-slug="johnson" tabindex="0" role="button" aria-label="Johnson County"><title>Johnson County</title></path>
    <path d="M 77.03,302.33 L 135.10,302.19 L 134.62,375.38 L 136.51,375.24 L 136.51,390.83 L 78.92,390.83 L 79.39,375.53 L 77.03,375.53 L 77.03,302.33 Z" data-county="Kearny" data-fips="20093" data-slug="kearny" tabindex="0" role="button" aria-label="Kearny County"><title>Kearny County</title></path>
    <path d="M 482.06,450.02 L 482.06,391.55 L 568.45,391.26 L 568.45,449.73 L 482.06,450.02 Z" data-county="Kingman" data-fips="20095" data-slug="kingman" tabindex="0" role="button" aria-label="Kingman County"><title>Kingman County</title></path>
    <path d="M 338.08,391.12 L 409.84,391.41 L 409.84,450.02 L 338.55,450.60 L 338.08,391.12 Z" data-county="Kiowa" data-fips="20097" data-slug="kiowa" tabindex="0" role="button" aria-label="Kiowa County"><title>Kiowa County</title></path>
    <path d="M 869.15,450.16 L 925.80,450.16 L 927.69,457.52 L 928.16,514.69 L 868.68,514.69 L 869.15,450.16 Z" data-county="Labette" data-fips="20099" data-slug="labette" tabindex="0" role="button" aria-label="Labette County"><title>Labette County</title></path>
    <path d="M 189.38,229.00 L 247.45,229.29 L 247.92,302.48 L 189.86,302.19 L 189.38,229.00 Z" data-county="Lane" data-fips="20101" data-slug="lane" tabindex="0" role="button" aria-label="Lane County"><title>Lane County</title></path>
    <path d="M 914.00,108.02 L 941.85,108.17 L 947.51,113.94 L 953.65,115.38 L 949.40,118.99 L 952.24,130.40 L 960.73,137.91 L 959.32,141.95 L 967.34,144.83 L 950.82,144.40 L 949.40,179.92 L 944.21,181.21 L 934.77,178.47 L 927.69,184.53 L 915.89,181.65 L 913.05,184.53 L 914.00,108.02 Z" data-county="Leavenworth" data-fips="20103" data-slug="leavenworth" tabindex="0" role="button" aria-label="Leavenworth County"><title>Leavenworth County</title></path>
    <path d="M 478.76,141.66 L 552.40,141.66 L 552.40,200.13 L 479.23,200.27 L 478.76,141.66 Z" data-county="Lincoln" data-fips="20105" data-slug="lincoln" tabindex="0" role="button" aria-label="Lincoln County"><title>Lincoln County</title></path>
    <path d="M 929.10,281.11 L 988.58,281.26 L 988.58,340.30 L 927.22,340.30 L 929.10,281.11 Z" data-county="Linn" data-fips="20107" data-slug="linn" tabindex="0" role="button" aria-label="Linn County"><title>Linn County</title></path>
    <path d="M 85.53,155.95 L 173.33,156.10 L 172.39,229.00 L 84.59,228.85 L 85.53,155.95 Z" data-county="Logan" data-fips="20109" data-slug="logan" tabindex="0" role="button" aria-label="Logan County"><title>Logan County</title></path>
    <path d="M 759.16,317.64 L 759.63,222.36 L 812.98,222.36 L 811.56,317.93 L 759.16,317.64 Z" data-county="Lyon" data-fips="20111" data-slug="lyon" tabindex="0" role="button" aria-label="Lyon County"><title>Lyon County</title></path>
    <path d="M 625.57,244.16 L 683.63,244.16 L 683.63,258.74 L 698.27,258.74 L 698.27,288.04 L 695.91,288.04 L 695.43,332.22 L 654.36,331.78 L 654.36,317.20 L 625.57,317.35 L 625.57,244.16 Z" data-county="Marion" data-fips="20115" data-slug="marion" tabindex="0" role="button" aria-label="Marion County"><title>Marion County</title></path>
    <path d="M 700.15,10.29 L 774.74,10.43 L 774.74,83.34 L 700.15,83.34 L 700.15,10.29 Z" data-county="Marshall" data-fips="20117" data-slug="marshall" tabindex="0" role="button" aria-label="Marshall County"><title>Marshall County</title></path>
    <path d="M 552.87,244.16 L 625.57,244.16 L 625.57,317.35 L 553.34,317.35 L 552.87,244.16 Z" data-county="McPherson" data-fips="20113" data-slug="mcpherson" tabindex="0" role="button" aria-label="McPherson County"><title>McPherson County</title></path>
    <path d="M 194.10,434.86 L 265.86,434.86 L 265.86,449.58 L 267.75,449.58 L 268.22,514.26 L 196.94,514.69 L 196.46,449.44 L 194.10,449.44 L 194.10,434.86 Z" data-county="Meade" data-fips="20119" data-slug="meade" tabindex="0" role="button" aria-label="Meade County"><title>Meade County</title></path>
    <path d="M 930.05,222.50 L 989.06,222.50 L 988.58,281.26 L 929.10,281.11 L 929.10,229.86 L 930.05,222.50 Z" data-county="Miami" data-fips="20121" data-slug="miami" tabindex="0" role="button" aria-label="Miami County"><title>Miami County</title></path>
    <path d="M 478.76,83.19 L 552.40,83.34 L 552.40,141.66 L 478.76,141.66 L 478.76,83.19 Z" data-county="Mitchell" data-fips="20123" data-slug="mitchell" tabindex="0" role="button" aria-label="Mitchell County"><title>Mitchell County</title></path>
    <path d="M 810.62,514.84 L 811.09,449.58 L 869.15,450.16 L 868.68,514.69 L 810.62,514.84 Z" data-county="Montgomery" data-fips="20125" data-slug="montgomery" tabindex="0" role="button" aria-label="Montgomery County"><title>Montgomery County</title></path>
    <path d="M 688.82,200.41 L 740.28,200.41 L 740.28,207.78 L 754.91,207.78 L 754.91,222.36 L 759.63,222.36 L 759.63,258.88 L 683.63,258.74 L 684.10,210.09 L 688.82,210.09 L 688.82,200.41 Z" data-county="Morris" data-fips="20127" data-slug="morris" tabindex="0" role="button" aria-label="Morris County"><title>Morris County</title></path>
    <path d="M 11.42,449.30 L 75.14,449.30 L 75.62,515.41 L 11.42,515.85 L 11.42,449.30 Z" data-county="Morton" data-fips="20129" data-slug="morton" tabindex="0" role="button" aria-label="Morton County"><title>Morton County</title></path>
    <path d="M 774.74,10.43 L 833.75,10.43 L 833.75,83.48 L 774.74,83.34 L 774.74,10.43 Z" data-county="Nemaha" data-fips="20131" data-slug="nemaha" tabindex="0" role="button" aria-label="Nemaha County"><title>Nemaha County</title></path>
    <path d="M 868.68,391.55 L 925.80,391.55 L 925.80,450.16 L 868.68,450.16 L 868.68,391.55 Z" data-county="Neosho" data-fips="20133" data-slug="neosho" tabindex="0" role="button" aria-label="Neosho County"><title>Neosho County</title></path>
    <path d="M 247.45,229.29 L 334.78,229.58 L 334.78,302.48 L 247.92,302.48 L 247.45,229.29 Z" data-county="Ness" data-fips="20135" data-slug="ness" tabindex="0" role="button" aria-label="Ness County"><title>Ness County</title></path>
    <path d="M 256.42,10.29 L 329.11,10.14 L 329.11,83.19 L 256.42,83.34 L 256.42,10.29 Z" data-county="Norton" data-fips="20137" data-slug="norton" tabindex="0" role="button" aria-label="Norton County"><title>Norton County</title></path>
    <path d="M 812.50,273.61 L 812.98,200.41 L 871.51,200.41 L 870.57,273.61 L 812.50,273.61 Z" data-county="Osage" data-fips="20139" data-slug="osage" tabindex="0" role="button" aria-label="Osage County"><title>Osage County</title></path>
    <path d="M 405.59,83.05 L 478.76,83.19 L 478.76,156.24 L 405.12,156.24 L 405.59,83.05 Z" data-county="Osborne" data-fips="20141" data-slug="osborne" tabindex="0" role="button" aria-label="Osborne County"><title>Osborne County</title></path>
    <path d="M 552.40,127.08 L 626.04,127.08 L 625.57,185.55 L 552.40,185.55 L 552.40,127.08 Z" data-county="Ottawa" data-fips="20143" data-slug="ottawa" tabindex="0" role="button" aria-label="Ottawa County"><title>Ottawa County</title></path>
    <path d="M 334.78,287.90 L 407.48,288.04 L 407.48,302.62 L 423.05,302.77 L 423.05,346.51 L 365.46,346.51 L 365.46,331.93 L 336.67,331.93 L 336.67,302.48 L 334.78,302.48 L 334.78,287.90 Z" data-county="Pawnee" data-fips="20145" data-slug="pawnee" tabindex="0" role="button" aria-label="Pawnee County"><title>Pawnee County</title></path>
    <path d="M 329.11,10.14 L 402.76,10.14 L 402.76,83.05 L 329.11,83.19 L 329.11,10.14 Z" data-county="Phillips" data-fips="20147" data-slug="phillips" tabindex="0" role="button" aria-label="Phillips County"><title>Phillips County</title></path>
    <path d="M 729.89,83.34 L 801.18,83.34 L 800.70,157.25 L 795.04,145.99 L 782.76,146.86 L 775.68,142.96 L 770.49,148.44 L 765.77,145.41 L 762.47,151.76 L 745.47,146.57 L 745.47,150.18 L 733.20,148.44 L 732.25,137.91 L 721.87,129.39 L 720.92,123.76 L 710.54,110.77 L 712.90,100.95 L 718.09,98.64 L 721.40,91.28 L 729.89,83.34 Z" data-county="Pottawatomie" data-fips="20149" data-slug="pottawatomie" tabindex="0" role="button" aria-label="Pottawatomie County"><title>Pottawatomie County</title></path>
    <path d="M 409.84,375.96 L 481.12,376.10 L 482.06,435.44 L 409.84,435.58 L 409.84,375.96 Z" data-county="Pratt" data-fips="20151" data-slug="pratt" tabindex="0" role="button" aria-label="Pratt County"><title>Pratt County</title></path>
    <path d="M 94.50,10.14 L 182.77,10.14 L 182.77,83.05 L 94.03,83.05 L 94.50,10.14 Z" data-county="Rawlins" data-fips="20153" data-slug="rawlins" tabindex="0" role="button" aria-label="Rawlins County"><title>Rawlins County</title></path>
    <path d="M 480.65,317.49 L 514.63,317.49 L 514.63,319.95 L 524.55,319.80 L 524.55,317.35 L 582.14,317.35 L 582.61,391.12 L 482.06,391.55 L 480.65,317.49 Z" data-county="Reno" data-fips="20155" data-slug="reno" tabindex="0" role="button" aria-label="Reno County"><title>Reno County</title></path>
    <path d="M 551.93,10.14 L 626.04,10.14 L 626.04,68.61 L 551.93,68.61 L 551.93,10.14 Z" data-county="Republic" data-fips="20157" data-slug="republic" tabindex="0" role="button" aria-label="Republic County"><title>Republic County</title></path>
    <path d="M 479.70,258.88 L 552.87,258.74 L 553.34,317.35 L 524.55,317.35 L 524.55,319.80 L 514.63,319.95 L 514.63,317.49 L 480.65,317.49 L 479.70,258.88 Z" data-county="Rice" data-fips="20159" data-slug="rice" tabindex="0" role="button" aria-label="Rice County"><title>Rice County</title></path>
    <path d="M 679.86,83.34 L 729.89,83.34 L 721.40,91.28 L 718.09,98.64 L 712.90,100.95 L 710.54,110.77 L 720.92,123.76 L 721.87,129.39 L 732.25,137.91 L 733.20,148.44 L 745.47,150.18 L 745.47,146.57 L 754.91,149.45 L 754.44,171.25 L 740.28,171.25 L 740.28,166.35 L 713.37,166.20 L 713.37,163.17 L 694.02,163.75 L 696.85,155.08 L 694.49,155.08 L 694.49,141.66 L 679.38,141.51 L 679.86,83.34 Z" data-county="Riley" data-fips="20161" data-slug="riley" tabindex="0" role="button" aria-label="Riley County"><title>Riley County</title></path>
    <path d="M 332.42,83.19 L 405.59,83.05 L 405.12,156.24 L 331.95,156.24 L 332.42,83.19 Z" data-county="Rooks" data-fips="20163" data-slug="rooks" tabindex="0" role="button" aria-label="Rooks County"><title>Rooks County</title></path>
    <path d="M 334.78,229.58 L 407.00,229.43 L 407.48,288.04 L 334.78,287.90 L 334.78,229.58 Z" data-county="Rush" data-fips="20165" data-slug="rush" tabindex="0" role="button" aria-label="Rush County"><title>Rush County</title></path>
    <path d="M 406.53,156.10 L 479.23,156.38 L 479.23,229.43 L 406.06,229.43 L 406.53,156.10 Z" data-county="Russell" data-fips="20167" data-slug="russell" tabindex="0" role="button" aria-label="Russell County"><title>Russell County</title></path>
    <path d="M 552.87,244.16 L 552.40,185.55 L 625.57,185.55 L 625.57,244.16 L 552.87,244.16 Z" data-county="Saline" data-fips="20169" data-slug="saline" tabindex="0" role="button" aria-label="Saline County"><title>Saline County</title></path>
    <path d="M 131.79,228.85 L 189.38,229.00 L 189.86,302.19 L 131.79,302.19 L 131.79,228.85 Z" data-county="Scott" data-fips="20171" data-slug="scott" tabindex="0" role="button" aria-label="Scott County"><title>Scott County</title></path>
    <path d="M 568.45,391.26 L 582.61,391.12 L 582.14,361.52 L 654.36,361.23 L 654.36,434.72 L 568.45,435.00 L 568.45,391.26 Z" data-county="Sedgwick" data-fips="20173" data-slug="sedgwick" tabindex="0" role="button" aria-label="Sedgwick County"><title>Sedgwick County</title></path>
    <path d="M 139.34,449.44 L 196.46,449.44 L 196.94,514.69 L 139.82,514.98 L 139.34,449.44 Z" data-county="Seward" data-fips="20175" data-slug="seward" tabindex="0" role="button" aria-label="Seward County"><title>Seward County</title></path>
    <path d="M 801.18,142.09 L 860.18,142.24 L 859.24,167.64 L 871.98,168.94 L 871.51,200.41 L 812.98,200.41 L 812.98,162.01 L 800.70,157.25 L 801.18,142.09 Z" data-county="Shawnee" data-fips="20177" data-slug="shawnee" tabindex="0" role="button" aria-label="Shawnee County"><title>Shawnee County</title></path>
    <path d="M 185.13,83.05 L 258.78,83.19 L 258.30,156.38 L 185.13,156.10 L 185.13,83.05 Z" data-county="Sheridan" data-fips="20179" data-slug="sheridan" tabindex="0" role="button" aria-label="Sheridan County"><title>Sheridan County</title></path>
    <path d="M 10.47,83.05 L 97.33,83.05 L 96.86,155.81 L 10.94,156.10 L 10.47,83.05 Z" data-county="Sherman" data-fips="20181" data-slug="sherman" tabindex="0" role="button" aria-label="Sherman County"><title>Sherman County</title></path>
    <path d="M 402.76,10.14 L 476.87,10.14 L 476.40,83.19 L 402.76,83.05 L 402.76,10.14 Z" data-county="Smith" data-fips="20183" data-slug="smith" tabindex="0" role="button" aria-label="Smith County"><title>Smith County</title></path>
    <path d="M 408.42,346.51 L 423.05,346.51 L 423.05,302.77 L 481.12,302.77 L 481.12,376.10 L 408.42,375.96 L 408.42,346.51 Z" data-county="Stafford" data-fips="20185" data-slug="stafford" tabindex="0" role="button" aria-label="Stafford County"><title>Stafford County</title></path>
    <path d="M 11.42,449.30 L 11.42,390.54 L 78.92,390.83 L 79.39,449.30 L 11.42,449.30 Z" data-county="Stanton" data-fips="20187" data-slug="stanton" tabindex="0" role="button" aria-label="Stanton County"><title>Stanton County</title></path>
    <path d="M 75.14,449.30 L 139.34,449.44 L 139.82,514.98 L 75.62,515.41 L 75.14,449.30 Z" data-county="Stevens" data-fips="20189" data-slug="stevens" tabindex="0" role="button" aria-label="Stevens County"><title>Stevens County</title></path>
    <path d="M 568.45,435.00 L 654.36,434.72 L 655.31,514.84 L 568.92,514.84 L 568.45,435.00 Z" data-county="Sumner" data-fips="20191" data-slug="sumner" tabindex="0" role="button" aria-label="Sumner County"><title>Sumner County</title></path>
    <path d="M 97.33,83.05 L 185.13,83.05 L 185.13,156.10 L 96.86,155.81 L 97.33,83.05 Z" data-county="Thomas" data-fips="20193" data-slug="thomas" tabindex="0" role="button" aria-label="Thomas County"><title>Thomas County</title></path>
    <path d="M 260.66,156.38 L 333.83,156.24 L 332.89,229.58 L 259.72,229.43 L 260.66,156.38 Z" data-county="Trego" data-fips="20195" data-slug="trego" tabindex="0" role="button" aria-label="Trego County"><title>Trego County</title></path>
    <path d="M 740.28,207.78 L 740.28,171.25 L 754.44,171.25 L 754.91,149.45 L 762.47,151.76 L 765.77,145.41 L 770.49,148.44 L 775.68,142.96 L 782.76,146.86 L 795.04,145.99 L 800.70,157.25 L 812.98,162.01 L 812.98,222.36 L 754.91,222.36 L 754.91,207.78 L 740.28,207.78 Z" data-county="Wabaunsee" data-fips="20197" data-slug="wabaunsee" tabindex="0" role="button" aria-label="Wabaunsee County"><title>Wabaunsee County</title></path>
    <path d="M 10.94,156.10 L 85.53,155.95 L 84.59,228.85 L 10.94,229.29 L 10.94,156.10 Z" data-county="Wallace" data-fips="20199" data-slug="wallace" tabindex="0" role="button" aria-label="Wallace County"><title>Wallace County</title></path>
    <path d="M 626.04,10.14 L 700.15,10.29 L 700.15,83.34 L 626.04,83.19 L 626.04,10.14 Z" data-county="Washington" data-fips="20201" data-slug="washington" tabindex="0" role="button" aria-label="Washington County"><title>Washington County</title></path>
    <path d="M 73.73,229.00 L 131.79,228.85 L 131.79,302.19 L 73.73,302.33 L 73.73,229.00 Z" data-county="Wichita" data-fips="20203" data-slug="wichita" tabindex="0" role="button" aria-label="Wichita County"><title>Wichita County</title></path>
    <path d="M 811.09,449.58 L 811.09,391.26 L 868.68,391.55 L 868.68,450.16 L 811.09,449.58 Z" data-county="Wilson" data-fips="20205" data-slug="wilson" tabindex="0" role="button" aria-label="Wilson County"><title>Wilson County</title></path>
    <path d="M 811.56,339.87 L 869.15,340.16 L 868.68,391.55 L 811.09,391.26 L 811.56,339.87 Z" data-county="Woodson" data-fips="20207" data-slug="woodson" tabindex="0" role="button" aria-label="Woodson County"><title>Woodson County</title></path>
    <path d="M 967.34,144.83 L 968.76,148.30 L 975.37,149.89 L 979.61,147.58 L 981.97,152.05 L 990.00,151.76 L 989.06,171.11 L 963.56,171.25 L 954.60,168.65 L 949.40,179.92 L 950.82,144.40 L 967.34,144.83 Z" data-county="Wyandotte" data-fips="20209" data-slug="wyandotte" tabindex="0" role="button" aria-label="Wyandotte County"><title>Wyandotte County</title></path>
  </g>
</svg>